<?xml version="1.0" encoding="utf-8"?>
<!-- Generator: Adobe Illustrator 23.0.1, SVG Export Plug-In . SVG Version: 6.00 Build 0)  -->
<svg version="1.1" xmlns="http://www.w3.org/2000/svg" xmlns:xlink="http://www.w3.org/1999/xlink" x="0px" y="0px"
	 viewBox="0 0 85.4 61.8" style="enable-background:new 0 0 85.4 61.8;" xml:space="preserve">
<style type="text/css">
	.st0{display:none;}
	.st1{display:inline;stroke:#FFFFFF;stroke-miterlimit:10;}
	.st2{fill:url(#SVGID_1_);}
	.st3{fill:#2DA9DF;}
	.st4{opacity:0.82;}
	.st5{fill:url(#SVGID_2_);}
</style>
<g id="Layer_2" class="st0">
	<rect x="-98.4" y="-116" class="st1" width="774.1" height="840.9"/>
</g>
<g id="Layer_1">
	<g>
		<linearGradient id="SVGID_1_" gradientUnits="userSpaceOnUse" x1="1.514" y1="27.6748" x2="81.9051" y2="27.6748">
			<stop  offset="0" style="stop-color:#005A96"/>
			<stop  offset="1" style="stop-color:#000000"/>
		</linearGradient>
		<path class="st2" d="M11.8,43.8c-0.2-0.1-0.4,0.1-0.6,0.2c-1.1,0.3-1.9-0.3-2-1.4c0-0.6,0-1.2,0-1.7c0-1.2,0-2.3-0.6-3.4
			c-0.8-1.5-0.4-3.1,0.7-4.4c0.4-0.5,0.8-1,1.5-1.2c0.8-0.3,0.3-1.1,0.2-1.7c0.4-1.3,0-2.5,0.2-3.8c0-0.2-0.1-0.5-0.3-0.5
			c-1.5-0.5-2.8-1.5-4.3-1.9c-1.3-0.7-2.6-1.3-4-2c-0.7-0.3-1.2-0.7-1.2-1.5c0-0.8,0.6-1.2,1.3-1.5c5.6-2.5,11.2-5,16.8-7.5
			C25.7,8.6,32,5.8,38.2,3c0.1-0.1,0.2-0.1,0.3-0.2c3-1.6,3-1.6,6.1-0.2c12,5.4,24,10.8,36,16.2c0.6,0.3,1.2,0.5,1.3,1.3
			c0.1,0.7-0.2,1.3-0.8,1.6c-0.6,0.3-1.2,0.6-1.7,0.9c-4.6,2.2-9.3,4.4-13.9,6.6c-0.6,0.3-0.8,0.6-0.8,1.3c0,4.4,0,8.8,0,13.2
			c0,1.5-0.4,2.8-1.4,3.9c-2.4,2.4-5.4,3.7-8.6,4.6c-6.1,1.6-12.4,1.9-18.7,1.3c-2.9-0.3-5.8-0.9-8.7-1.8c-2-0.7-3.8-1.6-5.6-2.6
			c-0.2-0.4-0.6-0.7-0.9-1c-1-1-1.7-2.2-1.8-3.6c0-1.9,0-3.8,0-5.7c0-0.5,0-1.1,0-1.6c-0.1-1.1,0.2-2.3-0.2-3.4
			c0.4-1.3,0.1-2.6,0.2-3.8c0-0.2-0.1-0.3-0.2-0.4c-1.3-0.7-2.6-1.3-4-2c-0.4-0.2-0.7,0-0.6,0.4c0.2,1.1,0.1,2.2,0.1,3.3
			c0,0.3,0,0.6,0.3,0.7c0.8,0.4,1.4,1.1,2.1,1.7c0.5,1.3,0.6,2.6,0.3,4c-0.6,0.6-0.8,1.3-0.7,2.1c0,0.9,0,1.8,0,2.7
			c0,1.1-0.6,1.7-1.5,1.7c-0.9,0-1.4-0.6-1.4-1.7c0-0.5,0-1,0-1.4c0-0.3,0.1-0.7-0.4-0.7c-0.5,0-0.4,0.4-0.4,0.7
			C12.2,41.9,12.3,42.9,11.8,43.8z M75.3,21c0.6,0,1-0.3,1.6-0.6c-0.3-0.2-0.5-0.3-0.7-0.4c-2.4-1.1-4.8-2.1-7.2-3.2
			c-8.9-4-17.8-8-26.7-12c-0.4-0.2-0.7-0.3-1.2-0.1c-2.9,1.3-5.7,2.6-8.6,3.8c-8.1,3.7-16.3,7.3-24.4,11c-0.5,0.2-1.1,0.4-1.6,0.9
			c1.4,0.6,2.6,1.3,3.9,1.8c0.2,0.1,0.3,0.2,0.5,0.3c2.9,1.6,5.9,2.8,8.8,4.2c6.9,3.3,13.9,6.6,20.8,9.9c0.8,0.4,1.4,0.4,2.1,0
			c10.1-4.8,20.2-9.6,30.2-14.4C73.8,21.9,74.7,21.7,75.3,21z M21.7,37.8c0,1.9,0,3.7,0,5.6c0,1.1,0.4,2,1.2,2.7
			c0.5,0.5,1.1,0.9,1.7,1.2c2.5,1.4,5.2,2.1,7.9,2.6c5.8,1,11.6,1.1,17.4,0.2c3.2-0.5,6.2-1.3,9-2.9c1.8-1,2.9-2.3,2.8-4.6
			c-0.2-3.5-0.1-7,0-10.5c0-1.2,0-1.2-1.1-0.7c-6,2.8-12,5.7-18,8.5c-0.7,0.3-1.4,0.3-2.1,0c-6-2.9-12-5.7-18-8.6
			c-0.7-0.3-0.9-0.3-0.9,0.5C21.7,33.8,21.7,35.8,21.7,37.8z M14,35.9c0-0.9-0.4-1.4-1.3-1.4c-0.8,0-1.4,0.6-1.5,1.4
			c0,0.8,0.6,1.5,1.5,1.5C13.5,37.3,14,36.8,14,35.9z"/>
		<polygon class="st3" points="-11.4,-12.4 -11.4,-12.4 -11.4,-12.4 		"/>
		<g class="st4">
			<g>
				<linearGradient id="SVGID_2_" gradientUnits="userSpaceOnUse" x1="8.5665" y1="35.969" x2="58.532" y2="32.1694">
					<stop  offset="0" style="stop-color:#2890FF"/>
					<stop  offset="1" style="stop-color:#005A96"/>
				</linearGradient>
				<path class="st5" d="M83.3,24.5c-1.3-0.6-2.6-1.3-3.9-1.9c-4.6,2.2-9.3,4.4-13.9,6.6c-0.6,0.3-0.8,0.6-0.8,1.3
					c0,4.4,0,8.8,0,13.2c0,1.5-0.4,2.8-1.4,3.9c-2.4,2.4-5.4,3.7-8.6,4.6c-6.1,1.6-12.4,1.9-18.7,1.3c-2.9-0.3-5.8-0.9-8.7-1.8
					c-2-0.7-3.8-1.6-5.6-2.6c-0.3,0.5-0.2,1-0.1,1.5c0.3,1.8,1.5,3.1,3,4.1c2,1.4,4.2,2.3,6.6,3c7.5,2.1,15.2,2.2,22.8,0.9
					c3.5-0.6,7-1.6,10-3.6c2.2-1.4,3.5-3.3,3.4-6.1c-0.1-4,0-8-0.1-12.1c0-1.2,0.3-1.7,1.4-2.3c4.9-2.2,9.8-4.6,14.7-7
					c0.6-0.3,1.1-0.6,1.1-1.4C84.4,25.2,84,24.8,83.3,24.5z M11.2,26.3c0-0.2-0.1-0.5-0.3-0.5c-1.5-0.5-2.8-1.5-4.3-1.9
					c-0.6,0.3-1.2,0.5-1.7,0.8c-1.1,0.6-1.1,2,0,2.6c0.4,0.2,0.9,0.4,1.3,0.6c1.6,0.7,3.2,1.5,4.8,2.2
					C11.5,28.8,11.1,27.5,11.2,26.3z M42.7,36.7c10.1-4.8,20.2-9.6,30.2-14.4c0.8-0.4,1.7-0.6,2.3-1.3c-0.7-0.8-1.7-1-2.6-1.4
					c-4.6-2.1-9.3-4.2-14-6.3c-4.5-2-9-4.1-13.5-6.1C44.5,7,44,7,43.3,7.3c-9.9,4.4-19.7,8.9-29.6,13.3c-1.1,0.5-2.3,0.8-3.3,1.6
					c0.2,0.1,0.3,0.2,0.5,0.3c2.9,1.6,5.9,2.8,8.8,4.2c6.9,3.3,13.9,6.6,20.8,9.9C41.4,37,42,37,42.7,36.7z M22.9,46.1
					c0.5,0.5,1.1,0.9,1.7,1.2c2.5,1.4,5.2,2.1,7.9,2.6c5.8,1,11.6,1.1,17.4,0.2c3.2-0.5,6.2-1.3,9-2.9c1.8-1,2.9-2.3,2.8-4.6
					c-0.2-3.5-0.1-7,0-10.5c0-1.2,0-1.2-1.1-0.7c-6,2.8-12,5.7-18,8.5c-0.7,0.3-1.4,0.3-2.1,0c-6-2.9-12-5.7-18-8.6
					c-0.7-0.3-0.9-0.3-0.9,0.5c0,2,0,4,0,6c0,1.9,0,3.7,0,5.6C21.7,44.6,22.1,45.4,22.9,46.1z M18.7,33.6c0.4-1.3,0.1-2.6,0.2-3.8
					c0-0.2-0.1-0.3-0.2-0.4c-1.3-0.7-2.6-1.3-4-2c-0.4-0.2-0.7,0-0.6,0.4c0.2,1.1,0.1,2.2,0.1,3.3c0,0.3,0,0.6,0.3,0.7
					c0.8,0.4,1.4,1.1,2.1,1.7c0.5,1.3,0.6,2.6,0.3,4c-0.6,0.6-0.8,1.3-0.7,2.1c0,0.9,0,1.8,0,2.7c0,1.1-0.6,1.7-1.5,1.7
					c-0.9,0-1.4-0.6-1.4-1.7c0-0.5,0-1,0-1.4c0-0.3,0.1-0.7-0.4-0.7c-0.5,0-0.4,0.4-0.4,0.7c0,1,0.1,2-0.4,2.9c0,1.4,0,2.8,0,4.2
					c0,1,0.6,1.5,1.5,1.5c0.8,0,1.4-0.5,1.4-1.5c0-0.6,0-1.2,0-1.8c0-0.3,0.1-0.6,0.5-0.6c0.4,0,0.5,0.2,0.5,0.6c0,0.5,0,1,0,1.4
					c0,1.3,0.5,1.9,1.4,1.9c1,0,1.4-0.6,1.5-1.8c0-1.1-0.2-2.3,0.2-3.4c0-1.9,0-3.8,0-5.7c-0.5-0.2-0.9-0.8-1.4-1
					c0.5,0.2,0.9,0.8,1.4,1c0-0.5,0-1.1,0-1.6C18.7,35.9,19,34.7,18.7,33.6z"/>
			</g>
		</g>
	</g>
</g>
</svg>
