<?xml version="1.0" encoding="utf-8"?>
<!-- Generator: Adobe Illustrator 23.0.1, SVG Export Plug-In . SVG Version: 6.00 Build 0)  -->
<svg version="1.1" id="Layer_1" xmlns="http://www.w3.org/2000/svg" xmlns:xlink="http://www.w3.org/1999/xlink" x="0px" y="0px"
	 viewBox="0 0 83.8 61.8" style="enable-background:new 0 0 83.8 61.8;" xml:space="preserve">
<style type="text/css">
	.st0{display:none;}
	.st1{display:inline;stroke:#FFFFFF;stroke-miterlimit:10;}
	.st2{display:inline;fill:url(#SVGID_1_);}
	.st3{display:inline;fill:#2DA9DF;}
	.st4{display:inline;opacity:0.82;}
	.st5{fill:url(#SVGID_2_);}
	.st6{display:inline;}
	.st7{opacity:0.89;fill:url(#SVGID_3_);enable-background:new    ;}
	.st8{opacity:0.89;fill:url(#SVGID_4_);enable-background:new    ;}
	.st9{opacity:0.89;fill:url(#SVGID_5_);enable-background:new    ;}
	.st10{fill:url(#SVGID_6_);}
	.st11{fill:url(#SVGID_7_);}
	.st12{fill:url(#SVGID_8_);}
	.st13{fill:url(#SVGID_9_);}
	.st14{fill:url(#SVGID_10_);}
	.st15{fill:url(#SVGID_11_);}
	.st16{fill:url(#SVGID_12_);}
	.st17{fill:url(#SVGID_13_);}
	.st18{fill:url(#SVGID_14_);}
	.st19{fill:url(#SVGID_15_);}
	.st20{opacity:0.89;enable-background:new    ;}
	.st21{fill:url(#SVGID_16_);}
	.st22{fill:url(#SVGID_17_);}
	.st23{fill:url(#SVGID_18_);}
	.st24{fill:#262624;}
	.st25{fill:url(#SVGID_19_);}
	.st26{fill:url(#SVGID_20_);}
	.st27{fill:url(#SVGID_21_);}
	.st28{fill:url(#SVGID_22_);}
	.st29{fill:url(#SVGID_23_);}
	.st30{fill:url(#SVGID_24_);}
	.st31{fill:#090A0B;}
	.st32{display:none;fill:url(#SVGID_25_);}
</style>
<g class="st0">
	<rect x="-98.4" y="-116" class="st1" width="774.1" height="840.9"/>
</g>
<g class="st0">
	<g>
		
			<linearGradient id="SVGID_1_" gradientUnits="userSpaceOnUse" x1="1.514" y1="36.3198" x2="81.9051" y2="36.3198" gradientTransform="matrix(1 0 0 -1 0 64)">
			<stop  offset="0" style="stop-color:#005A96"/>
			<stop  offset="1" style="stop-color:#000000"/>
		</linearGradient>
		<path class="st2" d="M11.8,43.8c-0.2-0.1-0.4,0.1-0.6,0.2c-1.1,0.3-1.9-0.3-2-1.4c0-0.6,0-1.2,0-1.7c0-1.2,0-2.3-0.6-3.4
			c-0.8-1.5-0.4-3.1,0.7-4.4c0.4-0.5,0.8-1,1.5-1.2c0.8-0.3,0.3-1.1,0.2-1.7c0.4-1.3,0-2.5,0.2-3.8c0-0.2-0.1-0.5-0.3-0.5
			c-1.5-0.5-2.8-1.5-4.3-1.9c-1.3-0.7-2.6-1.3-4-2c-0.7-0.3-1.2-0.7-1.2-1.5S2,19.3,2.7,19c5.6-2.5,11.2-5,16.8-7.5
			C25.7,8.6,32,5.8,38.2,3c0.1-0.1,0.2-0.1,0.3-0.2c3-1.6,3-1.6,6.1-0.2c12,5.4,24,10.8,36,16.2c0.6,0.3,1.2,0.5,1.3,1.3
			c0.1,0.7-0.2,1.3-0.8,1.6c-0.6,0.3-1.2,0.6-1.7,0.9c-4.6,2.2-9.3,4.4-13.9,6.6c-0.6,0.3-0.8,0.6-0.8,1.3c0,4.4,0,8.8,0,13.2
			c0,1.5-0.4,2.8-1.4,3.9c-2.4,2.4-5.4,3.7-8.6,4.6c-6.1,1.6-12.4,1.9-18.7,1.3c-2.9-0.3-5.8-0.9-8.7-1.8c-2-0.7-3.8-1.6-5.6-2.6
			c-0.2-0.4-0.6-0.7-0.9-1c-1-1-1.7-2.2-1.8-3.6c0-1.9,0-3.8,0-5.7c0-0.5,0-1.1,0-1.6c-0.1-1.1,0.2-2.3-0.2-3.4
			c0.4-1.3,0.1-2.6,0.2-3.8c0-0.2-0.1-0.3-0.2-0.4c-1.3-0.7-2.6-1.3-4-2c-0.4-0.2-0.7,0-0.6,0.4c0.2,1.1,0.1,2.2,0.1,3.3
			c0,0.3,0,0.6,0.3,0.7c0.8,0.4,1.4,1.1,2.1,1.7c0.5,1.3,0.6,2.6,0.3,4c-0.6,0.6-0.8,1.3-0.7,2.1c0,0.9,0,1.8,0,2.7
			c0,1.1-0.6,1.7-1.5,1.7s-1.4-0.6-1.4-1.7c0-0.5,0-1,0-1.4c0-0.3,0.1-0.7-0.4-0.7s-0.4,0.4-0.4,0.7C12.2,41.9,12.3,42.9,11.8,43.8z
			 M75.3,21c0.6,0,1-0.3,1.6-0.6c-0.3-0.2-0.5-0.3-0.7-0.4c-2.4-1.1-4.8-2.1-7.2-3.2c-8.9-4-17.8-8-26.7-12
			c-0.4-0.2-0.7-0.3-1.2-0.1c-2.9,1.3-5.7,2.6-8.6,3.8c-8.1,3.7-16.3,7.3-24.4,11c-0.5,0.2-1.1,0.4-1.6,0.9c1.4,0.6,2.6,1.3,3.9,1.8
			c0.2,0.1,0.3,0.2,0.5,0.3c2.9,1.6,5.9,2.8,8.8,4.2c6.9,3.3,13.9,6.6,20.8,9.9c0.8,0.4,1.4,0.4,2.1,0c10.1-4.8,20.2-9.6,30.2-14.4
			C73.8,21.9,74.7,21.7,75.3,21z M21.7,37.8c0,1.9,0,3.7,0,5.6c0,1.1,0.4,2,1.2,2.7c0.5,0.5,1.1,0.9,1.7,1.2
			c2.5,1.4,5.2,2.1,7.9,2.6c5.8,1,11.6,1.1,17.4,0.2c3.2-0.5,6.2-1.3,9-2.9c1.8-1,2.9-2.3,2.8-4.6c-0.2-3.5-0.1-7,0-10.5
			c0-1.2,0-1.2-1.1-0.7c-6,2.8-12,5.7-18,8.5c-0.7,0.3-1.4,0.3-2.1,0c-6-2.9-12-5.7-18-8.6c-0.7-0.3-0.9-0.3-0.9,0.5
			C21.7,33.8,21.7,35.8,21.7,37.8z M14,35.9c0-0.9-0.4-1.4-1.3-1.4c-0.8,0-1.4,0.6-1.5,1.4c0,0.8,0.6,1.5,1.5,1.5
			C13.5,37.3,14,36.8,14,35.9z"/>
		<path class="st3" d="M-11.4-12.4L-11.4-12.4L-11.4-12.4z"/>
		<g class="st4">
			<g>
				
					<linearGradient id="SVGID_2_" gradientUnits="userSpaceOnUse" x1="8.5725" y1="27.9516" x2="58.538" y2="31.7512" gradientTransform="matrix(1 0 0 -1 0 64)">
					<stop  offset="0" style="stop-color:#2890FF"/>
					<stop  offset="1" style="stop-color:#005A96"/>
				</linearGradient>
				<path class="st5" d="M83.3,24.5c-1.3-0.6-2.6-1.3-3.9-1.9c-4.6,2.2-9.3,4.4-13.9,6.6c-0.6,0.3-0.8,0.6-0.8,1.3
					c0,4.4,0,8.8,0,13.2c0,1.5-0.4,2.8-1.4,3.9c-2.4,2.4-5.4,3.7-8.6,4.6c-6.1,1.6-12.4,1.9-18.7,1.3c-2.9-0.3-5.8-0.9-8.7-1.8
					c-2-0.7-3.8-1.6-5.6-2.6c-0.3,0.5-0.2,1-0.1,1.5c0.3,1.8,1.5,3.1,3,4.1c2,1.4,4.2,2.3,6.6,3c7.5,2.1,15.2,2.2,22.8,0.9
					C57.5,58,61,57,64,55c2.2-1.4,3.5-3.3,3.4-6.1c-0.1-4,0-8-0.1-12.1c0-1.2,0.3-1.7,1.4-2.3c4.9-2.2,9.8-4.6,14.7-7
					c0.6-0.3,1.1-0.6,1.1-1.4C84.4,25.2,84,24.8,83.3,24.5z M11.2,26.3c0-0.2-0.1-0.5-0.3-0.5c-1.5-0.5-2.8-1.5-4.3-1.9
					c-0.6,0.3-1.2,0.5-1.7,0.8c-1.1,0.6-1.1,2,0,2.6c0.4,0.2,0.9,0.4,1.3,0.6c1.6,0.7,3.2,1.5,4.8,2.2
					C11.5,28.8,11.1,27.5,11.2,26.3z M42.7,36.7c10.1-4.8,20.2-9.6,30.2-14.4c0.8-0.4,1.7-0.6,2.3-1.3c-0.7-0.8-1.7-1-2.6-1.4
					c-4.6-2.1-9.3-4.2-14-6.3c-4.5-2-9-4.1-13.5-6.1C44.5,7,44,7,43.3,7.3c-9.9,4.4-19.7,8.9-29.6,13.3c-1.1,0.5-2.3,0.8-3.3,1.6
					c0.2,0.1,0.3,0.2,0.5,0.3c2.9,1.6,5.9,2.8,8.8,4.2c6.9,3.3,13.9,6.6,20.8,9.9C41.4,37,42,37,42.7,36.7z M22.9,46.1
					c0.5,0.5,1.1,0.9,1.7,1.2c2.5,1.4,5.2,2.1,7.9,2.6c5.8,1,11.6,1.1,17.4,0.2c3.2-0.5,6.2-1.3,9-2.9c1.8-1,2.9-2.3,2.8-4.6
					c-0.2-3.5-0.1-7,0-10.5c0-1.2,0-1.2-1.1-0.7c-6,2.8-12,5.7-18,8.5c-0.7,0.3-1.4,0.3-2.1,0c-6-2.9-12-5.7-18-8.6
					c-0.7-0.3-0.9-0.3-0.9,0.5c0,2,0,4,0,6c0,1.9,0,3.7,0,5.6C21.7,44.6,22.1,45.4,22.9,46.1z M18.7,33.6c0.4-1.3,0.1-2.6,0.2-3.8
					c0-0.2-0.1-0.3-0.2-0.4c-1.3-0.7-2.6-1.3-4-2c-0.4-0.2-0.7,0-0.6,0.4c0.2,1.1,0.1,2.2,0.1,3.3c0,0.3,0,0.6,0.3,0.7
					c0.8,0.4,1.4,1.1,2.1,1.7c0.5,1.3,0.6,2.6,0.3,4c-0.6,0.6-0.8,1.3-0.7,2.1c0,0.9,0,1.8,0,2.7c0,1.1-0.6,1.7-1.5,1.7
					s-1.4-0.6-1.4-1.7c0-0.5,0-1,0-1.4c0-0.3,0.1-0.7-0.4-0.7s-0.4,0.4-0.4,0.7c0,1,0.1,2-0.4,2.9c0,1.4,0,2.8,0,4.2
					c0,1,0.6,1.5,1.5,1.5c0.8,0,1.4-0.5,1.4-1.5c0-0.6,0-1.2,0-1.8c0-0.3,0.1-0.6,0.5-0.6s0.5,0.2,0.5,0.6c0,0.5,0,1,0,1.4
					c0,1.3,0.5,1.9,1.4,1.9c1,0,1.4-0.6,1.5-1.8c0-1.1-0.2-2.3,0.2-3.4c0-1.9,0-3.8,0-5.7c-0.5-0.2-0.9-0.8-1.4-1
					c0.5,0.2,0.9,0.8,1.4,1c0-0.5,0-1.1,0-1.6C18.7,35.9,19,34.7,18.7,33.6z"/>
			</g>
		</g>
	</g>
	<g id="Layer_3" class="st6">
		
			<linearGradient id="SVGID_3_" gradientUnits="userSpaceOnUse" x1="95.664" y1="81.9803" x2="18.2943" y2="19.881" gradientTransform="matrix(1 0 0 -1 0 64)">
			<stop  offset="0" style="stop-color:#2890FF"/>
			<stop  offset="1" style="stop-color:#005A96"/>
		</linearGradient>
		<path class="st7" d="M58.4,14.2c-0.7-0.6-1.5-1-2.4-1.3c-0.6-0.2-1.3-0.3-2-0.3H16.4c-3.9,0-7,3.1-7,7v21.9c0,2.2,1,4.2,2.7,5.5
			c1.2,0.9,2.7,1.5,4.3,1.5H27c0.5-3.4,0.9-6.9,1.6-10.3c0.4-2,1.7-2.9,4.3-2.6c1.3,0.1,2.3,1.4,2.4,3.1c0.3,3.3,0.6,6.5,0.7,9.8h18
			c3.9,0,7-3.1,7-7V19.6C61,17.4,60,15.5,58.4,14.2z M32.6,18.7h6.3c0.5,0,0.9,0.4,0.9,0.9s-0.4,0.9-0.9,0.9h-6.3
			c-0.5,0-0.9-0.4-0.9-0.9C31.7,19.1,32.1,18.7,32.6,18.7z M15.9,19.6c0-0.5,0.4-0.9,0.9-0.9h12.5c0.5,0,0.9,0.4,0.9,0.9
			s-0.4,0.9-0.9,0.9H16.8C16.3,20.5,15.9,20.1,15.9,19.6z M26.9,23.5c0,0.5-0.4,0.9-0.9,0.9h-8.2c-0.5,0-0.9-0.4-0.9-0.9
			s0.4-0.9,0.9-0.9H26C26.5,22.6,26.9,23,26.9,23.5z M24.4,32.9h-6.8c-0.5,0-0.9-0.4-0.9-0.9s0.4-0.9,0.9-0.9h6.8
			c0.5,0,0.9,0.4,0.9,0.9C25.3,32.5,24.9,32.9,24.4,32.9z M34.7,32.9h-6.9c-0.5,0-0.9-0.4-0.9-0.9s0.4-0.9,0.9-0.9h6.9
			c0.5,0,0.9,0.4,0.9,0.9C35.6,32.5,35.2,32.9,34.7,32.9z M35,28.6H18.8c-0.5,0-0.9-0.4-0.9-0.9s0.4-0.9,0.9-0.9H35
			c0.5,0,0.9,0.4,0.9,0.9S35.5,28.6,35,28.6z M29.2,24.4c-0.5,0-0.9-0.4-0.9-0.9s0.4-0.9,0.9-0.9h12.5c0.5,0,0.9,0.4,0.9,0.9
			s-0.4,0.9-0.9,0.9H29.2z M47.7,28.6h-9.4c-0.5,0-0.9-0.4-0.9-0.9s0.4-0.9,0.9-0.9h9.4c0.5,0,0.9,0.4,0.9,0.9
			C48.6,28.2,48.1,28.6,47.7,28.6z"/>
		
			<linearGradient id="SVGID_4_" gradientUnits="userSpaceOnUse" x1="110.4429" y1="59.1903" x2="24.8034" y2="-9.5466" gradientTransform="matrix(1 0 0 -1 0 64)">
			<stop  offset="0" style="stop-color:#2890FF"/>
			<stop  offset="1" style="stop-color:#005A96"/>
		</linearGradient>
		<path class="st8" d="M81.6,60.7H5.5c-0.7,0-1.3-0.6-1.3-1.3v-1.8c0-0.7,0.6-1.3,1.3-1.3h76.1c0.7,0,1.3,0.6,1.3,1.3v1.8
			C82.9,60.1,82.3,60.7,81.6,60.7z"/>
		
			<linearGradient id="SVGID_5_" gradientUnits="userSpaceOnUse" x1="77.911" y1="22.5208" x2="63.8511" y2="11.2359" gradientTransform="matrix(1 0 0 -1 0 64)">
			<stop  offset="0" style="stop-color:#2890FF"/>
			<stop  offset="1" style="stop-color:#005A96"/>
		</linearGradient>
		<path class="st9" d="M69.8,54.1H64c-0.7,0-1.3-0.6-1.3-1.3v-5c0-0.7,0.6-1.3,1.3-1.3h5.8c0.7,0,1.3,0.6,1.3,1.3v5
			C71.1,53.5,70.6,54.1,69.8,54.1z"/>
	</g>
	<g class="st6">
		
			<linearGradient id="SVGID_6_" gradientUnits="userSpaceOnUse" x1="83.0201" y1="45.7012" x2="-24.6408" y2="-2.0712" gradientTransform="matrix(1 0 0 -1 0 64)">
			<stop  offset="0" style="stop-color:#005A96"/>
			<stop  offset="1" style="stop-color:#000000"/>
		</linearGradient>
		<path class="st10" d="M82.8,55.2c-0.4-0.7-1-1.2-1.7-1.7l-9.4-0.1c0-0.4-0.1-0.7,0-1c0-0.2,0.2-0.3,0.4-0.3
			c2.4-0.6,3.5-3.8,1.9-5.7c-0.4-0.5-1-0.9-1.7-1c-0.5,0-0.6-0.3-0.6-0.7c-0.3-1.3-1.1-2-2.4-2.2c-1.4-0.2-2.9-0.2-4.3-0.1
			c-2,0.1-2.9,1.3-2.9,3.3c0,1.7,0,3.4,0,5c0,0.7-0.2,1.7-0.1,2.6l-16.5-0.2c-0.3,0-0.5-0.3-0.5-0.6c0.1-0.5,0.1-0.9-0.1-1.4
			c-0.5-1-1.5-1.5-2.5-1.7s-2.1-0.2-3.1-0.2c-1.2,0-1.4,0-1.5-0.9c0-0.1-0.1-0.3-0.1-0.5c-0.1-0.8,0.1-0.9,0.9-0.9c5,0,9.9,0,14.9,0
			c3.1,0,5.5-2.5,5.5-5.5c0-8.2,0-16.4,0-24.5c0-0.8-0.1-1.5-0.3-2.3c-0.1-0.2-0.1-0.4-0.2-0.6c-1-3-3.6-4.6-7.3-4.6
			c-12.4,0-24.9,0-37.4,0c-0.8,0-1.7,0.1-2.4,0.3C8,10.6,6.2,13.2,6.2,17c0,7.5,0,14.9,0,22.4c0,0.8,0.1,1.6,0.3,2.4
			c0.7,2.8,2.9,4.7,5.7,5.1C12.6,47,13,47,13.4,47c3.9,0,7.8,0,11.7,0c0.3,0,0.5,0.2,0.5,0.5s-0.1,0.6-0.1,0.9
			c0,0.2-0.1,0.5-0.1,0.7c-0.1,0.4-0.5,0.3-0.8,0.3c-2.1,0.3-3,1.3-2.9,3.2c0,0.3-0.2,0.5-0.5,0.5c-5.3,0-10.7,0-16,0
			c-1.3,0-2.5,0.1-3.6,0.7c-0.1,0-0.1,0.1-0.1,0.1c-2.2,2.1-1.4,4.4,0.3,5.5C2.6,59.9,3.5,60,4.3,60h0.4c1.7,0,3.4,0,5.1,0H74
			c1.4,0,2.8,0,4.2,0c0.5,0,1,0,1.5,0c1.5-0.1,2.7-1,3.2-2.2C83.2,57,83.2,56.1,82.8,55.2z M71.8,48.7c0-0.6,0-1.2,0-1.8
			c0-0.4,0.2-0.5,0.5-0.4c0.4,0.1,0.7,0.3,0.9,0.7c0.5,0.7,0.4,2.7-0.1,3.3c-0.2,0.2-0.4,0.4-0.7,0.5c-0.4,0-0.7,0-0.6-0.5
			C71.8,49.9,71.8,49.3,71.8,48.7z M63.2,44c0-0.2,0.1-0.4,0.4-0.4c1.8-0.1,3.6-0.1,5.5,0c1,0,1.6,0.7,1.6,1.7c0,1.1,0,2.3,0,3.4
			v2.1c0,0.9,0,1.8,0,2.6l-7.4-0.1C63.2,50.2,63.2,47.1,63.2,44z M37.9,51.2c0-0.3,0.1-0.3,0.3-0.3c1.3,0,2.7-0.1,4,0.1
			c0.3,0.1,0.7,0.2,1,0.4c0.6,0.4,0.4,1.1,0.2,1.5s-1,0.3-1.5,0.3c-1.5,0-2.7,0-4.3,0C37.8,52.5,37.9,51.9,37.9,51.2z M13.4,38.6
			c-1.5,0-2.8-0.5-4-1.5c0-0.1-0.1-0.1-0.2-0.2c-0.6-0.6-0.8-1.4-1.5-1.9c0-6.3-0.1-12.7,0-19c0-2.5,2.3-4.7,4.8-4.9
			c0.4,0,0.7,0,1,0c12.7,0,25.3,0,37.9,0c2,0,3.5,0.6,4.6,1.8c0.5,0.6,0.9,1.4,1.2,2.3c0.1,0.2,0.1,0.5,0.1,0.7c0,6.4,0,12.9,0,19.3
			c-0.3,0.1-0.4,0.4-0.6,0.6c-1.3,2-3.2,2.9-5.6,2.9c-4.7,0-9.5,0-14.2,0c-0.1-0.5-0.2-0.9-0.3-1.4c-0.9-2.8-3.4-3.8-7.1-2.8
			c-1.1,0.3-1.9,1.2-2.1,2.3c-0.1,0.6-0.3,1.3-0.5,1.9l0,0C22.4,38.6,17.9,38.7,13.4,38.6z M28.6,38.2c0.4-2,1.7-2.9,4.3-2.6
			c1.3,0.1,2.3,1.4,2.4,3.1c0.3,3.3,0.6,6.5,0.7,9.8c0,0.2,0,0.5,0,0.7c0.2,0.8,0.2,1.6,0.2,2.3c0,0.9-0.9,1.7-1.8,1.7
			c-2.1,0-4.2,0-6.4,0c-1,0-1.6-0.7-1.6-1.8c0-0.9,0.2-1.8,0.4-2.6c0-0.1,0-0.2,0-0.3C27.5,45,27.9,41.6,28.6,38.2z M23.6,51.3
			c0.3-0.1,0.5-0.2,0.8-0.3c0.4-0.1,0.7-0.1,0.6,0.4c-0.1,0.6,0.2,1.1,0.4,1.7c-0.7,0.1-1.3,0-1.8-0.3C23.3,52.7,23,52.5,23,52
			C23,51.6,23.3,51.4,23.6,51.3z M79.6,58.5c-0.3,0-0.6,0-1,0H47.8c-14.5,0-29,0-43.5,0H4.2c-1.1,0-2-0.2-2.8-1.7
			c-0.1-0.1-0.1-0.4,0-0.5c0.9-1.5,2-1.6,3.1-1.6h73.8c0.4,0,0.9,0,1.3,0c1,0.1,1.8,0.8,1.9,1.6c0,0.1,0,0.2,0,0.3
			C81.6,57.6,80.7,58.4,79.6,58.5z"/>
		
			<linearGradient id="SVGID_7_" gradientUnits="userSpaceOnUse" x1="3.6999" y1="94.9316" x2="97.3984" y2="39.5433" gradientTransform="matrix(1 0 0 -1 0 64)">
			<stop  offset="0" style="stop-color:#005A96"/>
			<stop  offset="1" style="stop-color:#000000"/>
		</linearGradient>
		<path class="st11" d="M60.7,5.4c0.3,0.1,0.7,0.2,1,0.2c0.9,0,1.2,0.6,1.3,1.3c0,0.4,0.1,0.8,0.2,1.1c0.1,0.3,0.3,0.7,0.7,0.6
			s0.5-0.4,0.6-0.7c0.1-0.5,0.1-0.9,0.2-1.4c0.1-0.7,0.5-1,1.2-1.1c0.4,0,0.8,0,1.2-0.1c0.3-0.1,0.6-0.2,0.6-0.7
			c0.1-0.6-0.5-0.6-1-0.7c-1.5-0.2-1.7-0.4-1.9-1.6c-0.1-0.6,0-1.6-0.9-1.6c-0.8,0-0.7,1-0.8,1.6c-0.1,0.8-0.4,1.4-1.3,1.4
			c-0.3,0-0.7,0.1-1,0.2C60.3,4.1,60,4.3,60,4.7C60,5.2,60.4,5.3,60.7,5.4z"/>
		
			<linearGradient id="SVGID_8_" gradientUnits="userSpaceOnUse" x1="-39.1608" y1="22.4255" x2="54.5377" y2="-32.9628" gradientTransform="matrix(1 0 0 -1 0 64)">
			<stop  offset="0" style="stop-color:#005A96"/>
			<stop  offset="1" style="stop-color:#000000"/>
		</linearGradient>
		<path class="st12" d="M12.4,72c0,0.1,0,0.2,0.1,0.2C12.6,72,12.5,72,12.4,72z"/>
		
			<linearGradient id="SVGID_9_" gradientUnits="userSpaceOnUse" x1="-0.797" y1="87.3241" x2="92.9014" y2="31.9358" gradientTransform="matrix(1 0 0 -1 0 64)">
			<stop  offset="0" style="stop-color:#005A96"/>
			<stop  offset="1" style="stop-color:#000000"/>
		</linearGradient>
		<path class="st13" d="M65.9,15.5c0.2,0,0.4,0,0.6-0.1s0.3-0.2,0.4-0.4c0-0.2-0.1-0.4-0.3-0.4c-0.2-0.1-0.5-0.2-0.7-0.2
			c-1-0.1-1.2-0.3-1.3-1.3c-0.1-0.4,0-1-0.6-1c-0.7,0-0.6,0.7-0.6,1.1c-0.1,0.8-0.4,1.1-1.2,1.2c-0.5,0-1.1,0-1.1,0.6
			s0.7,0.6,1.1,0.6c0.8,0.1,1.2,0.4,1.2,1.2c0,0.4,0,1,0.6,1.1c0.7,0,0.5-0.7,0.6-1C64.7,15.7,64.7,15.6,65.9,15.5z"/>
		
			<linearGradient id="SVGID_10_" gradientUnits="userSpaceOnUse" x1="-10.2284" y1="71.3694" x2="83.4701" y2="15.9811" gradientTransform="matrix(1 0 0 -1 0 64)">
			<stop  offset="0" style="stop-color:#005A96"/>
			<stop  offset="1" style="stop-color:#000000"/>
		</linearGradient>
		<path class="st14" d="M65.2,41.2c0.4,0.2,0.7,0,0.9-0.3c0.5-0.7,0.6-1.8,0-2.5s-0.6-1.3,0-2c0.3-0.3,0.4-0.8,0.4-1.2
			c0-0.5-0.2-1-0.5-1.4c-0.2-0.3-0.5-0.4-0.9-0.2c-0.3,0.2-0.3,0.5-0.1,0.8c0.4,0.6,0.3,1.1-0.1,1.6c-0.7,0.9-0.6,1.8,0,2.7
			c0.4,0.5,0.5,1,0.1,1.6C64.8,40.6,64.8,41,65.2,41.2z"/>
		
			<linearGradient id="SVGID_11_" gradientUnits="userSpaceOnUse" x1="-7.8524" y1="75.3889" x2="85.846" y2="20.0006" gradientTransform="matrix(1 0 0 -1 0 64)">
			<stop  offset="0" style="stop-color:#005A96"/>
			<stop  offset="1" style="stop-color:#000000"/>
		</linearGradient>
		<path class="st15" d="M67.5,29.6c-0.3,0.2-0.4,0.5-0.1,0.9c0.7,0.9-0.2,1.6-0.9,2.6c-0.2,0.3-0.2,0.7,0.1,1
			c0.9,0.9,1.5,1.5,0.9,2.2c-0.2,0.3-0.2,0.7,0.1,0.9c0.4,0.2,0.7,0.1,0.9-0.3c0.5-0.8,0.6-1.8,0-2.6c-0.5-0.7-0.5-1.2,0-1.8
			c0.3-0.4,0.4-0.8,0.4-1.4c0-0.5-0.2-1-0.5-1.4C68.1,29.6,67.8,29.4,67.5,29.6z"/>
	</g>
</g>
<g id="Layer_2">
	
		<linearGradient id="SVGID_12_" gradientUnits="userSpaceOnUse" x1="37.4625" y1="31.1572" x2="32.4724" y2="59.0332" gradientTransform="matrix(0 1 -1 0 60.8577 -1.388)">
		<stop  offset="0" style="stop-color:#2890FF"/>
		<stop  offset="1" style="stop-color:#005A96"/>
	</linearGradient>
	<path class="st16" d="M3.8,52.1V12.8c0-3.5,2.9-6.4,6.4-6.4h3.1c2.8,0,5.1,2.3,5.1,5.1v44.4c0,2-1.6,3.6-3.6,3.6h-3.7
		C7.1,59.4,3.8,56.1,3.8,52.1z"/>
	
		<linearGradient id="SVGID_13_" gradientUnits="userSpaceOnUse" x1="17.8033" y1="8.4395" x2="20.4991" y2="8.4395" gradientTransform="matrix(0 1 -1 0 60.8577 -1.388)">
		<stop  offset="0" style="stop-color:#2890FF"/>
		<stop  offset="1" style="stop-color:#005A96"/>
	</linearGradient>
	<path class="st17" d="M52.3,19.1c-0.6-0.2-1.5-0.1-1.5-1.2c0-1,0.6-1.5,1.6-1.5c0.9,0,1.5,0.5,1.5,1.5C53.9,19,53.1,19,52.3,19.1z"
		/>
	
		<linearGradient id="SVGID_14_" gradientUnits="userSpaceOnUse" x1="31.3667" y1="45.7443" x2="29.0972" y2="52.2576" gradientTransform="matrix(0 1 -1 0 60.8577 -1.388)">
		<stop  offset="0" style="stop-color:#005A96"/>
		<stop  offset="1" style="stop-color:#000000"/>
	</linearGradient>
	<path class="st18" d="M9.6,31c-0.7-0.1-1.2-1-1.1-2c0-0.8,0.1-1.6,0.6-2.2c0.2-0.2,0.4-0.8,0.8-0.4c0.2,0.2,0.6,0.5,0.3,0.9
		c-0.1,0.3-0.4,0.5-0.5,0.8c0,0.5-0.2,1.1,0.3,1.4c0.6,0.3,0.8-0.3,1.1-0.6c0.5-0.5,0.4-1.2,1-1.7c0.7-0.5,1.2-1.1,2-0.6
		c0.7,0.4,1.4,1,1,1.9c0,0.7,0,1.4-0.3,1.9c-0.2,0.3-0.4,0.7-0.9,0.4c-0.4-0.2-0.5-0.5-0.3-0.9c0.1-0.2,0.2-0.5,0.3-0.7
		c0.1-0.4,0-0.9-0.4-1.1c-0.4-0.2-0.7,0.1-0.9,0.4c-0.2,0.4-0.5,0.8-0.6,1.2C11.7,31.2,10.4,31.1,9.6,31z"/>
	
		<linearGradient id="SVGID_15_" gradientUnits="userSpaceOnUse" x1="16.4091" y1="-2.4512" x2="9.5218" y2="42.003" gradientTransform="matrix(0 1 -1 0 60.8577 -1.388)">
		<stop  offset="0" style="stop-color:#2890FF"/>
		<stop  offset="1" style="stop-color:#005A96"/>
	</linearGradient>
	<path class="st19" d="M20.8,11.2c0-0.7-0.3-0.9-0.9-0.9c0.3-0.8-0.8-1.6,0-2.4c8.5,0,17,0.1,25.5,0.1c0.5,0,1-0.1,1.4,0.1
		c0.7,0.3,1.6,0.9,0.6,1.8c-0.8,0.8-0.9,1.2,0,1.9c0.8,0.6,0.1,1-0.1,1.5c-0.7,0.5-1.4,0.4-2.2,0.4c-5.7,0-11.5-0.2-17.2,0.1
		C25.1,13.9,22.8,13.2,20.8,11.2z"/>
	<g class="st20">
		
			<linearGradient id="SVGID_16_" gradientUnits="userSpaceOnUse" x1="31.4162" y1="19.6909" x2="13.4377" y2="44.7356" gradientTransform="matrix(0 1 -1 0 60.8577 -1.388)">
			<stop  offset="0" style="stop-color:#2890FF"/>
			<stop  offset="1" style="stop-color:#005A96"/>
		</linearGradient>
		<path class="st21" d="M21.1,17.2c4,3.2,7.9,6.4,11.6,10c0.7,0.2,0.8-0.9,1.4-0.8l0,0c-0.3-1.1,1.3-1.4,0.7-2.5
			c0-0.3,0.1-0.6,0.1-1c0,0.7-0.2,0.9-0.8,0.5c-1.4-0.6-2.4-1.8-3.5-2.9c-2.1-1.8-4.2-3.6-6.3-5.4c-0.4,0-0.6-0.3-0.8-0.6
			c-0.9-0.8-1.8-1.6-2.8-2.4l0,0"/>
		
			<linearGradient id="SVGID_17_" gradientUnits="userSpaceOnUse" x1="64.2743" y1="8.7078" x2="36.1885" y2="39.6558" gradientTransform="matrix(0 1 -1 0 60.8577 -1.388)">
			<stop  offset="0" style="stop-color:#2890FF"/>
			<stop  offset="1" style="stop-color:#005A96"/>
		</linearGradient>
		<path class="st22" d="M30.5,47.1c-2,0-4.1,0-6.4,0c0.8,1.2,0.5,2.2,0.6,3.2c6.9,0,13.9,0.1,20.8,0.1c0.3,0,0.5,0.1,0.4,0.4
			c0,0.1,0,0.3,0,0.4c-0.4,0.8-1.3,0.6-1.9,0.6c-6.5,0-13.1,0-19.6,0c0,1.6,0.9,1.6,2,1.6c9.5,0,19.1,0,28.6,0.1
			c0.1-0.1,0.2-0.2,0.4-0.3c-0.2-0.8-0.4-1.6-0.6-2.4c-0.7-1.2-1.7-2.1-2.7-2.9c-1.7-0.7-3.4-0.9-5.2-0.9
			C41.4,47.1,36,47.1,30.5,47.1z"/>
		
			<linearGradient id="SVGID_18_" gradientUnits="userSpaceOnUse" x1="72.2283" y1="15.9262" x2="44.1426" y2="46.8742" gradientTransform="matrix(0 1 -1 0 60.8577 -1.388)">
			<stop  offset="0" style="stop-color:#2890FF"/>
			<stop  offset="1" style="stop-color:#005A96"/>
		</linearGradient>
		<path class="st23" d="M23.1,53.1c0-2.3,0-4.7,0-7c0-0.8,0.1-1.6-1.1-1.5c-1.2,0-0.7,0.9-0.8,1.5c-0.3,2.3,0.5,4.7-0.9,7
			c-0.6,0.9-0.2,2,1.3,1.7C22.9,54.9,23.1,54.1,23.1,53.1z"/>
	</g>
	<path class="st24" d="M34.7,25.4c-0.1,0-0.1-0.1-0.2-0.1C34.6,25.3,34.6,25.3,34.7,25.4C34.7,25.4,34.7,25.4,34.7,25.4z"/>
	<path class="st24" d="M34.5,24.1c0.1,0,0.2,0,0.3,0.1C34.7,24.5,34.6,24.1,34.5,24.1C34.5,24.1,34.5,24.1,34.5,24.1z"/>
	<g>
		
			<linearGradient id="SVGID_19_" gradientUnits="userSpaceOnUse" x1="31.7855" y1="26.1497" x2="31.7916" y2="26.1497" gradientTransform="matrix(0 1 -1 0 60.8577 -1.388)">
			<stop  offset="0" style="stop-color:#005A96"/>
			<stop  offset="1" style="stop-color:#000000"/>
		</linearGradient>
		<polygon class="st25" points="34.7,30.4 34.7,30.4 34.7,30.4 		"/>
		
			<linearGradient id="SVGID_20_" gradientUnits="userSpaceOnUse" x1="17.7258" y1="38.7236" x2="17.7759" y2="38.7236" gradientTransform="matrix(0 1 -1 0 60.8577 -1.388)">
			<stop  offset="0" style="stop-color:#005A96"/>
			<stop  offset="1" style="stop-color:#000000"/>
		</linearGradient>
		<path class="st26" d="M22.2,16.4C22.2,16.4,22.2,16.4,22.2,16.4C22.1,16.3,22.1,16.3,22.2,16.4C22.1,16.3,22.2,16.4,22.2,16.4z"/>
		
			<linearGradient id="SVGID_21_" gradientUnits="userSpaceOnUse" x1="12.647" y1="47.4944" x2="17.6271" y2="47.4944" gradientTransform="matrix(0 1 -1 0 60.8577 -1.388)">
			<stop  offset="0" style="stop-color:#005A96"/>
			<stop  offset="1" style="stop-color:#000000"/>
		</linearGradient>
		<path class="st27" d="M15.9,13.8c0.1-1.4-1.1-2.5-2.7-2.5c-1.6,0.1-2.4,0.9-2.5,2.5c-0.1,1.6,0.9,2.4,2.2,2.5
			C14.8,16.2,15.8,15.4,15.9,13.8z M12.3,13.8c0-0.8,0.5-1.1,1.2-1.1c0.6,0.1,1,0.5,0.9,1.1c-0.1,0.6-0.5,0.9-1.1,1
			C12.8,14.7,12.3,14.4,12.3,13.8z"/>
		
			<linearGradient id="SVGID_22_" gradientUnits="userSpaceOnUse" x1="44.8381" y1="47.7335" x2="49.7944" y2="47.7335" gradientTransform="matrix(0 1 -1 0 60.8577 -1.388)">
			<stop  offset="0" style="stop-color:#005A96"/>
			<stop  offset="1" style="stop-color:#000000"/>
		</linearGradient>
		<path class="st28" d="M15.7,45.9c0.1-1.4-1.1-2.5-2.7-2.5c-1.6,0-2.4,0.9-2.5,2.4c-0.1,1.6,0.9,2.4,2.1,2.5
			C14.6,48.4,15.5,47.6,15.7,45.9z M12.1,45.9c0-0.8,0.5-1.1,1.2-1.1c0.6,0.1,1,0.5,0.9,1.1c-0.1,0.6-0.5,0.9-1.1,1
			C12.5,46.9,12,46.6,12.1,45.9z"/>
	</g>
	<g>
		<g>
			
				<linearGradient id="SVGID_23_" gradientUnits="userSpaceOnUse" x1="28.7665" y1="4.7611" x2="50.1175" y2="73.6301" gradientTransform="matrix(0 1 -1 0 60.8577 -1.388)">
				<stop  offset="0" style="stop-color:#005A96"/>
				<stop  offset="1" style="stop-color:#000000"/>
			</linearGradient>
			<path class="st29" d="M32.7,36c0.5,0.1,0.8-0.3,0.8-0.7c-0.1-1.6-1.6-0.5-1.8-1c-0.1-0.3,0.5-1.7-0.8-2c-0.7,0.1-0.7,0.5-0.7,1
				c0,0.5,0.1,1-0.7,1c-0.6,0-1.4-0.2-1.4,0.8c0,0.8,0.7,0.9,1.4,0.8c1.4-0.1-0.1,1.9,1.5,1.9C32.3,37.9,31.1,35.7,32.7,36z"/>
			
				<linearGradient id="SVGID_24_" gradientUnits="userSpaceOnUse" x1="23.5425" y1="6.3807" x2="44.8934" y2="75.2496" gradientTransform="matrix(0 1 -1 0 60.8577 -1.388)">
				<stop  offset="0" style="stop-color:#005A96"/>
				<stop  offset="1" style="stop-color:#000000"/>
			</linearGradient>
			<path class="st30" d="M15.4,57.2c2.7-1.1,5.4-1.4,8.1-1.3c1.1,0.1,1.4-0.4,1.2-1.3c0,0,0,0,0,0c0-0.1,0-0.2,0-0.3l0,0l-0.1-0.1
				l0,0c10.3,0,20.6,0.1,31,0.1l0,0c0.2,0,0.4,0,0.7,0c1.2-0.3,1.2-2,0.2-3.3c0-0.9-0.4-1.7-1-2.4c-0.3-0.5-0.6-0.9-0.9-1.4
				c-0.5-0.3-1-0.6-1.5-0.9c0,0,0,0,0,0c-1.5-1.1-3.2-1.4-5.1-1.4c-7.3,0-14.5,0-21.8,0c-0.6,0-1.6,0.3-1.6-0.4
				c0-1.8-1.2-1.4-2.1-1.3C21.4,43,21,42.7,21,41.4c0.1-7.4,0-14.8,0.1-22.2c0-0.8-0.4-1.6,0.3-2.4l11.3,9.4c0,0.7,0,1.3,0.9,1.8
				c0.8,0.5,1.8,0,2.4,0.8c0.3,2.3,1.2,4.1,3.6,5c1.5,0.6,3,1.4,4.5,2.1c3.7,1.7,3.7,1.7,6.2-1.4c0.6-0.7,0.7-1.2,0.1-1.9
				c-0.6-0.7-1.1-1.4-1.6-2.1c-0.2-0.2-0.4-0.4-0.6-0.6c-0.6-0.9-1.3-1.8-1.4-2c-0.7-1-1.5-1.9-2.3-2.9c-0.1-0.1-0.2-0.2-0.4-0.3
				c-0.2,0-0.3-0.1-0.5-0.1c-1.5-0.9-3.8-0.4-4.3-2.9c-0.1-0.6-1-0.7-1.6-0.6c-0.8,0.1-1.3-0.2-1.9-0.6c-0.9-1.1-2-1.7-3.1-2.6
				c-1.6-1.3-3.2-2.6-4.9-3.9c-0.2-0.5-0.6-0.8-1.2-0.9c0.6-1.1,1.7-0.6,2.5-0.6c9.7-0.6,19.5,1.5,29-2.2c1.5-0.5,2.9-1,4.8-1.7
				c-1.4-0.5-2.4-0.8-3.4-1.2c-3-1-6-2-9-3c-0.8,0.1-1.5,0.1-2.3,0.1c-9.6,0-19.3,0.1-28.9,0.1c0,0,0,0,0,0
				c-0.4-0.2-1.1-0.1-0.9-0.9c-1.2-0.2-1.9-1.5-3.3-1.2L11.3,3c0,0,0,0,0,0C8,3.7,5.6,6.6,5.6,10c-0.1,13.4-0.1,26.7,0,40.1
				C5.6,55.1,10.9,59,15.4,57.2z M43.4,25.9c0.6,1,1.2,1.9,1.8,2.9c0.2,0.3,0.9,1.2,1.6,2c0.1,0.2,0.2,0.4,0.3,0.5
				c0.5,0.8,1.3,1.3,1.6,2.7c-1.6-1.1-2.7-2-3.9-2.9c-0.2-0.2-0.4-0.5-0.4-0.7c-0.3-0.8-0.7-1.2-1.5-1.1c-0.7,0.1-1,0.6-1,1.2
				c0,0.9,0.6,1.3,1.5,1.3c1.3,1.1,2.6,2.2,3.9,3.2l-0.4,0.5c-1.4-0.7-2.8-1.4-4.2-2c-2.6-1.1-5.1-2.3-5.8-5.4c0.4-1.6,1-3,2.9-3.1
				C41,25,42.2,25.6,43.4,25.9z M52.1,47L52.1,47c1,0.9,2.1,1.7,2.7,2.9c0.2,0.8,0.4,1.6,0.6,2.4c-0.1,0.1-0.2,0.2-0.4,0.3
				c-9.6,0-19.1-0.1-28.6-0.1c-1.1,0-2-0.1-2-1.6c6.5,0,13.1,0,19.6,0c0.6,0,2,0.4,1.9-0.6c0,0,0,0,0,0c0-0.1,0-0.3,0-0.4
				c0-0.3-0.1-0.4-0.4-0.4c-6.9,0-13.9-0.1-20.8-0.1c-0.1-1,0.2-2.1-0.7-3.2h6.4c5.5,0,10.9,0.1,16.4,0C48.7,46.2,50.4,46.3,52.1,47
				z M23.1,46.1v7c0,1-0.2,1.8-1.5,1.6c-1.5,0.3-1.8-0.8-1.3-1.6c1.5-2.3,0.6-4.7,0.9-7c0.1-0.6-0.4-1.5,0.8-1.5
				C23.2,44.5,23.1,45.3,23.1,46.1z M22.1,11.3c0.2,0.4,0.5,0.7,0.9,0.8c0,0,0,0,0,0c0,0,0,0,0,0c0.8,0.7,1.6,1.3,2.4,2
				c0.2,0.3,0.3,0.6,0.7,0.6c1.8,1.5,3.7,3,5.5,4.6c1,0.9,1.8,1.9,3,2.4c0,0,0,0,0,0c0.3,0.3,0.5,0.2,0.6,0c0,0.1,0,0.3-0.1,0.5
				c0.1,0.1,0.1,0.2,0.1,0.3c0,0.7-1.1,0.9-0.9,1.7v0c-0.6-0.1-0.7,0.8-1.4,0.6c-3.6-3.4-7.6-6.5-11.5-9.5c-0.4-0.7-0.5-1.3-0.5-2
				c0-0.7,0.2-1.5,0.3-2.2l0.1-0.1C21.8,10.9,22,11,22.1,11.3C22.1,11.3,22.1,11.3,22.1,11.3z M54.9,8.7c-0.1,2.1-2.2,1.5-3.5,1.9
				c-0.3,0.1-1.5-1.4-1.5-2.1c0-0.6,1-1.3,1.3-2.4C52.4,7.5,55,6.5,54.9,8.7z M46,6.2c0.5,0,1-0.1,1.4,0.1C48.2,6.5,49,7,48.1,7.8
				c-0.8,0.7-0.9,1.1,0,1.6c0.8,0.5,0.1,0.9-0.2,1.3v0c-0.7,0.5-1.4,0.4-2.2,0.4c-5.7,0-11.4-0.2-17.2,0.1c-2.7,0.1-5-0.5-7.1-2.2
				l0,0c0-0.6-0.3-0.8-0.9-0.8c0.3-0.7-0.8-1.4,0-2.1c0,0,0,0,0,0C29.1,6.2,37.5,6.2,46,6.2z M7.5,52.2c-0.1-0.3-0.2-0.7-0.3-1
				c-0.1-0.3-0.2-0.7-0.3-1l0,0c0.4-3.2,0.2-6.5,0.2-9.7c0-3.1,0.3-6.2-0.2-9.2v-2.6c0.4-3.3,0.4-6.5,0-9.8v-5.6c0,0,0,0,0,0
				c0.3-1.5,0.4-3,0-4.6c0,0,0,0,0,0c1.6-3.8,5-5.4,9.1-4.2l0,0c0.1,0.1,0.2,0.1,0.3,0.1c0,0,0,0,0,0c2.7,2.1,3.4,4.8,3.4,8.1
				c-0.1,12.1-0.1,24.2-0.1,36.3c0,4.3-2.2,6.2-5.9,7.3C12,56.9,8.4,54.4,7.5,52.2z"/>
		</g>
	</g>
	<path class="st31" d="M21.5,10.8c0.3,0.1,0.6,0.2,0.7,0.5C22,11.2,21.7,11,21.5,10.8z"/>
	<path class="st24" d="M12.6,48.5C12.6,48.5,12.6,48.5,12.6,48.5"/>
</g>
<linearGradient id="SVGID_25_" gradientUnits="userSpaceOnUse" x1="-24.7314" y1="80.603" x2="68.9671" y2="25.2147" gradientTransform="matrix(0.9574 -0.2888 -0.2888 -0.9574 15.6925 66.1023)">
	<stop  offset="0" style="stop-color:#005A96"/>
	<stop  offset="1" style="stop-color:#000000"/>
</linearGradient>
<path class="st32" d="M33.8,14.4c0.3,0,0.7,0,1-0.1c0.9-0.3,1.3,0.2,1.6,0.9c0.1,0.4,0.3,0.7,0.5,1c0.2,0.3,0.5,0.6,0.8,0.4
	s0.4-0.5,0.4-0.8c0-0.5-0.2-0.9-0.2-1.4c-0.1-0.7,0.2-1.1,0.8-1.4c0.4-0.1,0.8-0.2,1.1-0.4c0.3-0.2,0.5-0.4,0.4-0.8
	c-0.1-0.6-0.7-0.4-1.2-0.4c-1.5,0.2-1.7,0.1-2.3-1c-0.3-0.5-0.5-1.5-1.3-1.3c-0.8,0.2-0.4,1.2-0.3,1.8c0.1,0.8,0,1.5-0.8,1.7
	c-0.3,0.1-0.6,0.3-0.9,0.5c-0.4,0.3-0.7,0.6-0.5,1C33.1,14.4,33.5,14.4,33.8,14.4z"/>
</svg>
