<?xml version="1.0" encoding="utf-8"?>
<!-- Generator: Adobe Illustrator 23.0.1, SVG Export Plug-In . SVG Version: 6.00 Build 0)  -->
<svg version="1.1" xmlns="http://www.w3.org/2000/svg" xmlns:xlink="http://www.w3.org/1999/xlink" x="0px" y="0px"
	 viewBox="0 0 85.4 61.8" style="enable-background:new 0 0 85.4 61.8;" xml:space="preserve">
<style type="text/css">
	.st0{display:none;}
	.st1{display:inline;stroke:#FFFFFF;stroke-miterlimit:10;}
	.st2{display:inline;fill:url(#SVGID_1_);}
	.st3{display:inline;fill:#2DA9DF;}
	.st4{display:inline;opacity:0.82;}
	.st5{fill:url(#SVGID_2_);}
	.st6{opacity:0.89;fill:url(#SVGID_3_);}
	.st7{opacity:0.89;fill:url(#SVGID_4_);}
	.st8{opacity:0.89;fill:url(#SVGID_5_);}
	.st9{fill:url(#SVGID_6_);}
	.st10{fill:url(#SVGID_7_);}
	.st11{fill:url(#SVGID_8_);}
	.st12{fill:url(#SVGID_9_);}
	.st13{fill:url(#SVGID_10_);}
	.st14{fill:url(#SVGID_11_);}
</style>
<g id="Layer_2" class="st0">
	<rect x="-98.4" y="-116" class="st1" width="774.1" height="840.9"/>
</g>
<g id="Layer_1">
	<g class="st0">
		<linearGradient id="SVGID_1_" gradientUnits="userSpaceOnUse" x1="1.514" y1="27.6748" x2="81.9051" y2="27.6748">
			<stop  offset="0" style="stop-color:#005A96"/>
			<stop  offset="1" style="stop-color:#000000"/>
		</linearGradient>
		<path class="st2" d="M11.8,43.8c-0.2-0.1-0.4,0.1-0.6,0.2c-1.1,0.3-1.9-0.3-2-1.4c0-0.6,0-1.2,0-1.7c0-1.2,0-2.3-0.6-3.4
			c-0.8-1.5-0.4-3.1,0.7-4.4c0.4-0.5,0.8-1,1.5-1.2c0.8-0.3,0.3-1.1,0.2-1.7c0.4-1.3,0-2.5,0.2-3.8c0-0.2-0.1-0.5-0.3-0.5
			c-1.5-0.5-2.8-1.5-4.3-1.9c-1.3-0.7-2.6-1.3-4-2c-0.7-0.3-1.2-0.7-1.2-1.5c0-0.8,0.6-1.2,1.3-1.5c5.6-2.5,11.2-5,16.8-7.5
			C25.7,8.6,32,5.8,38.2,3c0.1-0.1,0.2-0.1,0.3-0.2c3-1.6,3-1.6,6.1-0.2c12,5.4,24,10.8,36,16.2c0.6,0.3,1.2,0.5,1.3,1.3
			c0.1,0.7-0.2,1.3-0.8,1.6c-0.6,0.3-1.2,0.6-1.7,0.9c-4.6,2.2-9.3,4.4-13.9,6.6c-0.6,0.3-0.8,0.6-0.8,1.3c0,4.4,0,8.8,0,13.2
			c0,1.5-0.4,2.8-1.4,3.9c-2.4,2.4-5.4,3.7-8.6,4.6c-6.1,1.6-12.4,1.9-18.7,1.3c-2.9-0.3-5.8-0.9-8.7-1.8c-2-0.7-3.8-1.6-5.6-2.6
			c-0.2-0.4-0.6-0.7-0.9-1c-1-1-1.7-2.2-1.8-3.6c0-1.9,0-3.8,0-5.7c0-0.5,0-1.1,0-1.6c-0.1-1.1,0.2-2.3-0.2-3.4
			c0.4-1.3,0.1-2.6,0.2-3.8c0-0.2-0.1-0.3-0.2-0.4c-1.3-0.7-2.6-1.3-4-2c-0.4-0.2-0.7,0-0.6,0.4c0.2,1.1,0.1,2.2,0.1,3.3
			c0,0.3,0,0.6,0.3,0.7c0.8,0.4,1.4,1.1,2.1,1.7c0.5,1.3,0.6,2.6,0.3,4c-0.6,0.6-0.8,1.3-0.7,2.1c0,0.9,0,1.8,0,2.7
			c0,1.1-0.6,1.7-1.5,1.7c-0.9,0-1.4-0.6-1.4-1.7c0-0.5,0-1,0-1.4c0-0.3,0.1-0.7-0.4-0.7c-0.5,0-0.4,0.4-0.4,0.7
			C12.2,41.9,12.3,42.9,11.8,43.8z M75.3,21c0.6,0,1-0.3,1.6-0.6c-0.3-0.2-0.5-0.3-0.7-0.4c-2.4-1.1-4.8-2.1-7.2-3.2
			c-8.9-4-17.8-8-26.7-12c-0.4-0.2-0.7-0.3-1.2-0.1c-2.9,1.3-5.7,2.6-8.6,3.8c-8.1,3.7-16.3,7.3-24.4,11c-0.5,0.2-1.1,0.4-1.6,0.9
			c1.4,0.6,2.6,1.3,3.9,1.8c0.2,0.1,0.3,0.2,0.5,0.3c2.9,1.6,5.9,2.8,8.8,4.2c6.9,3.3,13.9,6.6,20.8,9.9c0.8,0.4,1.4,0.4,2.1,0
			c10.1-4.8,20.2-9.6,30.2-14.4C73.8,21.9,74.7,21.7,75.3,21z M21.7,37.8c0,1.9,0,3.7,0,5.6c0,1.1,0.4,2,1.2,2.7
			c0.5,0.5,1.1,0.9,1.7,1.2c2.5,1.4,5.2,2.1,7.9,2.6c5.8,1,11.6,1.1,17.4,0.2c3.2-0.5,6.2-1.3,9-2.9c1.8-1,2.9-2.3,2.8-4.6
			c-0.2-3.5-0.1-7,0-10.5c0-1.2,0-1.2-1.1-0.7c-6,2.8-12,5.7-18,8.5c-0.7,0.3-1.4,0.3-2.1,0c-6-2.9-12-5.7-18-8.6
			c-0.7-0.3-0.9-0.3-0.9,0.5C21.7,33.8,21.7,35.8,21.7,37.8z M14,35.9c0-0.9-0.4-1.4-1.3-1.4c-0.8,0-1.4,0.6-1.5,1.4
			c0,0.8,0.6,1.5,1.5,1.5C13.5,37.3,14,36.8,14,35.9z"/>
		<polygon class="st3" points="-11.4,-12.4 -11.4,-12.4 -11.4,-12.4 		"/>
		<g class="st4">
			<g>
				<linearGradient id="SVGID_2_" gradientUnits="userSpaceOnUse" x1="8.5665" y1="35.969" x2="58.532" y2="32.1694">
					<stop  offset="0" style="stop-color:#2890FF"/>
					<stop  offset="1" style="stop-color:#005A96"/>
				</linearGradient>
				<path class="st5" d="M83.3,24.5c-1.3-0.6-2.6-1.3-3.9-1.9c-4.6,2.2-9.3,4.4-13.9,6.6c-0.6,0.3-0.8,0.6-0.8,1.3
					c0,4.4,0,8.8,0,13.2c0,1.5-0.4,2.8-1.4,3.9c-2.4,2.4-5.4,3.7-8.6,4.6c-6.1,1.6-12.4,1.9-18.7,1.3c-2.9-0.3-5.8-0.9-8.7-1.8
					c-2-0.7-3.8-1.6-5.6-2.6c-0.3,0.5-0.2,1-0.1,1.5c0.3,1.8,1.5,3.1,3,4.1c2,1.4,4.2,2.3,6.6,3c7.5,2.1,15.2,2.2,22.8,0.9
					c3.5-0.6,7-1.6,10-3.6c2.2-1.4,3.5-3.3,3.4-6.1c-0.1-4,0-8-0.1-12.1c0-1.2,0.3-1.7,1.4-2.3c4.9-2.2,9.8-4.6,14.7-7
					c0.6-0.3,1.1-0.6,1.1-1.4C84.4,25.2,84,24.8,83.3,24.5z M11.2,26.3c0-0.2-0.1-0.5-0.3-0.5c-1.5-0.5-2.8-1.5-4.3-1.9
					c-0.6,0.3-1.2,0.5-1.7,0.8c-1.1,0.6-1.1,2,0,2.6c0.4,0.2,0.9,0.4,1.3,0.6c1.6,0.7,3.2,1.5,4.8,2.2
					C11.5,28.8,11.1,27.5,11.2,26.3z M42.7,36.7c10.1-4.8,20.2-9.6,30.2-14.4c0.8-0.4,1.7-0.6,2.3-1.3c-0.7-0.8-1.7-1-2.6-1.4
					c-4.6-2.1-9.3-4.2-14-6.3c-4.5-2-9-4.1-13.5-6.1C44.5,7,44,7,43.3,7.3c-9.9,4.4-19.7,8.9-29.6,13.3c-1.1,0.5-2.3,0.8-3.3,1.6
					c0.2,0.1,0.3,0.2,0.5,0.3c2.9,1.6,5.9,2.8,8.8,4.2c6.9,3.3,13.9,6.6,20.8,9.9C41.4,37,42,37,42.7,36.7z M22.9,46.1
					c0.5,0.5,1.1,0.9,1.7,1.2c2.5,1.4,5.2,2.1,7.9,2.6c5.8,1,11.6,1.1,17.4,0.2c3.2-0.5,6.2-1.3,9-2.9c1.8-1,2.9-2.3,2.8-4.6
					c-0.2-3.5-0.1-7,0-10.5c0-1.2,0-1.2-1.1-0.7c-6,2.8-12,5.7-18,8.5c-0.7,0.3-1.4,0.3-2.1,0c-6-2.9-12-5.7-18-8.6
					c-0.7-0.3-0.9-0.3-0.9,0.5c0,2,0,4,0,6c0,1.9,0,3.7,0,5.6C21.7,44.6,22.1,45.4,22.9,46.1z M18.7,33.6c0.4-1.3,0.1-2.6,0.2-3.8
					c0-0.2-0.1-0.3-0.2-0.4c-1.3-0.7-2.6-1.3-4-2c-0.4-0.2-0.7,0-0.6,0.4c0.2,1.1,0.1,2.2,0.1,3.3c0,0.3,0,0.6,0.3,0.7
					c0.8,0.4,1.4,1.1,2.1,1.7c0.5,1.3,0.6,2.6,0.3,4c-0.6,0.6-0.8,1.3-0.7,2.1c0,0.9,0,1.8,0,2.7c0,1.1-0.6,1.7-1.5,1.7
					c-0.9,0-1.4-0.6-1.4-1.7c0-0.5,0-1,0-1.4c0-0.3,0.1-0.7-0.4-0.7c-0.5,0-0.4,0.4-0.4,0.7c0,1,0.1,2-0.4,2.9c0,1.4,0,2.8,0,4.2
					c0,1,0.6,1.5,1.5,1.5c0.8,0,1.4-0.5,1.4-1.5c0-0.6,0-1.2,0-1.8c0-0.3,0.1-0.6,0.5-0.6c0.4,0,0.5,0.2,0.5,0.6c0,0.5,0,1,0,1.4
					c0,1.3,0.5,1.9,1.4,1.9c1,0,1.4-0.6,1.5-1.8c0-1.1-0.2-2.3,0.2-3.4c0-1.9,0-3.8,0-5.7c-0.5-0.2-0.9-0.8-1.4-1
					c0.5,0.2,0.9,0.8,1.4,1c0-0.5,0-1.1,0-1.6C18.7,35.9,19,34.7,18.7,33.6z"/>
			</g>
		</g>
	</g>
	<g id="Layer_3">
		<linearGradient id="SVGID_3_" gradientUnits="userSpaceOnUse" x1="95.6735" y1="-17.9685" x2="18.3038" y2="44.1308">
			<stop  offset="0" style="stop-color:#2890FF"/>
			<stop  offset="1" style="stop-color:#005A96"/>
		</linearGradient>
		<path class="st6" d="M58.4,14.2c-0.7-0.6-1.5-1-2.4-1.3c-0.6-0.2-1.3-0.3-2-0.3H16.4c-3.9,0-7,3.1-7,7v21.9c0,2.2,1,4.2,2.7,5.5
			c1.2,0.9,2.7,1.5,4.3,1.5H27c0.5-3.4,0.9-6.9,1.6-10.3c0.4-2,1.7-2.9,4.3-2.6c1.3,0.1,2.3,1.4,2.4,3.1c0.3,3.3,0.6,6.5,0.7,9.8H54
			c3.9,0,7-3.1,7-7V19.6C61,17.4,60,15.5,58.4,14.2z M32.6,18.7h6.3c0.5,0,0.9,0.4,0.9,0.9c0,0.5-0.4,0.9-0.9,0.9h-6.3
			c-0.5,0-0.9-0.4-0.9-0.9C31.7,19.1,32.1,18.7,32.6,18.7z M15.9,19.6c0-0.5,0.4-0.9,0.9-0.9h12.5c0.5,0,0.9,0.4,0.9,0.9
			c0,0.5-0.4,0.9-0.9,0.9H16.8C16.3,20.5,15.9,20.1,15.9,19.6z M26.9,23.5c0,0.5-0.4,0.9-0.9,0.9h-8.2c-0.5,0-0.9-0.4-0.9-0.9
			c0-0.5,0.4-0.9,0.9-0.9H26C26.5,22.6,26.9,23,26.9,23.5z M24.4,32.9h-6.8c-0.5,0-0.9-0.4-0.9-0.9c0-0.5,0.4-0.9,0.9-0.9h6.8
			c0.5,0,0.9,0.4,0.9,0.9C25.3,32.5,24.9,32.9,24.4,32.9z M34.7,32.9h-6.9c-0.5,0-0.9-0.4-0.9-0.9c0-0.5,0.4-0.9,0.9-0.9h6.9
			c0.5,0,0.9,0.4,0.9,0.9C35.6,32.5,35.2,32.9,34.7,32.9z M35,28.6H18.8c-0.5,0-0.9-0.4-0.9-0.9c0-0.5,0.4-0.9,0.9-0.9H35
			c0.5,0,0.9,0.4,0.9,0.9C35.9,28.2,35.5,28.6,35,28.6z M29.2,24.4c-0.5,0-0.9-0.4-0.9-0.9c0-0.5,0.4-0.9,0.9-0.9h12.5
			c0.5,0,0.9,0.4,0.9,0.9c0,0.5-0.4,0.9-0.9,0.9H29.2z M47.7,28.6h-9.4c-0.5,0-0.9-0.4-0.9-0.9c0-0.5,0.4-0.9,0.9-0.9h9.4
			c0.5,0,0.9,0.4,0.9,0.9C48.6,28.2,48.1,28.6,47.7,28.6z"/>
		<linearGradient id="SVGID_4_" gradientUnits="userSpaceOnUse" x1="110.4538" y1="4.8232" x2="24.8143" y2="73.5601">
			<stop  offset="0" style="stop-color:#2890FF"/>
			<stop  offset="1" style="stop-color:#005A96"/>
		</linearGradient>
		<path class="st7" d="M81.6,60.7H5.5c-0.7,0-1.3-0.6-1.3-1.3v-1.8c0-0.7,0.6-1.3,1.3-1.3h76.1c0.7,0,1.3,0.6,1.3,1.3v1.8
			C82.9,60.1,82.3,60.7,81.6,60.7z"/>
		<linearGradient id="SVGID_5_" gradientUnits="userSpaceOnUse" x1="77.8816" y1="41.4425" x2="63.8217" y2="52.7274">
			<stop  offset="0" style="stop-color:#2890FF"/>
			<stop  offset="1" style="stop-color:#005A96"/>
		</linearGradient>
		<path class="st8" d="M69.8,54.1H64c-0.7,0-1.3-0.6-1.3-1.3v-5c0-0.7,0.6-1.3,1.3-1.3h5.8c0.7,0,1.3,0.6,1.3,1.3v5
			C71.1,53.5,70.6,54.1,69.8,54.1z"/>
	</g>
	<g>
		<linearGradient id="SVGID_6_" gradientUnits="userSpaceOnUse" x1="83.0592" y1="18.3869" x2="-24.6017" y2="66.1593">
			<stop  offset="0" style="stop-color:#005A96"/>
			<stop  offset="1" style="stop-color:#000000"/>
		</linearGradient>
		<path class="st9" d="M82.8,55.2c-0.4-0.7-1-1.2-1.7-1.7l-9.4-0.1c0-0.4-0.1-0.7,0-1c0-0.2,0.2-0.3,0.4-0.3
			c2.4-0.6,3.5-3.8,1.9-5.7c-0.4-0.5-1-0.9-1.7-1c-0.5,0-0.6-0.3-0.6-0.7c-0.3-1.3-1.1-2-2.4-2.2c-1.4-0.2-2.9-0.2-4.3-0.1
			c-2,0.1-2.9,1.3-2.9,3.3c0,1.7,0,3.4,0,5c0,0.7-0.2,1.7-0.1,2.6l-16.5-0.2c-0.3,0-0.5-0.3-0.5-0.6c0.1-0.5,0.1-0.9-0.1-1.4
			c-0.5-1-1.5-1.5-2.5-1.7c-1-0.2-2.1-0.2-3.1-0.2c-1.2,0-1.4,0-1.5-0.9c0-0.1-0.1-0.3-0.1-0.5c-0.1-0.8,0.1-0.9,0.9-0.9
			c5,0,9.9,0,14.9,0c3.1,0,5.5-2.5,5.5-5.5c0-8.2,0-16.4,0-24.5c0-0.8-0.1-1.5-0.3-2.3c-0.1-0.2-0.1-0.4-0.2-0.6
			c-1-3-3.6-4.6-7.3-4.6c-12.4,0-24.9,0-37.4,0c-0.8,0-1.7,0.1-2.4,0.3c-3.4,0.9-5.2,3.5-5.2,7.3c0,7.5,0,14.9,0,22.4
			c0,0.8,0.1,1.6,0.3,2.4c0.7,2.8,2.9,4.7,5.7,5.1c0.4,0.1,0.8,0.1,1.2,0.1c3.9,0,7.8,0,11.7,0c0.3,0,0.5,0.2,0.5,0.5
			c0,0.3-0.1,0.6-0.1,0.9c0,0.2-0.1,0.5-0.1,0.7c-0.1,0.4-0.5,0.3-0.8,0.3c-2.1,0.3-3,1.3-2.9,3.2c0,0.3-0.2,0.5-0.5,0.5
			c-5.3,0-10.7,0-16,0c-1.3,0-2.5,0.1-3.6,0.7c-0.1,0-0.1,0.1-0.1,0.1c-2.2,2.1-1.4,4.4,0.3,5.5c0.8,0.5,1.7,0.6,2.5,0.6h0.4
			c1.7,0,3.4,0,5.1,0H74c1.4,0,2.8,0,4.2,0c0.5,0,1,0,1.5,0c1.5-0.1,2.7-1,3.2-2.2C83.2,57,83.2,56.1,82.8,55.2z M71.8,48.7
			c0-0.6,0-1.2,0-1.8c0-0.4,0.2-0.5,0.5-0.4c0.4,0.1,0.7,0.3,0.9,0.7c0.5,0.7,0.4,2.7-0.1,3.3c-0.2,0.2-0.4,0.4-0.7,0.5
			C72,51,71.7,51,71.8,50.5C71.8,49.9,71.8,49.3,71.8,48.7z M63.2,44c0-0.2,0.1-0.4,0.4-0.4c1.8-0.1,3.6-0.1,5.5,0
			c1,0,1.6,0.7,1.6,1.7c0,1.1,0,2.3,0,3.4v2.1c0,0.9,0,1.8,0,2.6l-7.4-0.1C63.2,50.2,63.2,47.1,63.2,44z M37.9,51.2
			c0-0.3,0.1-0.3,0.3-0.3c1.3,0,2.7-0.1,4,0.1c0.3,0.1,0.7,0.2,1,0.4c0.6,0.4,0.4,1.1,0.2,1.5c-0.2,0.4-1,0.3-1.5,0.3
			c-1.5,0-2.7,0-4.3,0C37.8,52.5,37.9,51.9,37.9,51.2z M13.4,38.6c-1.5,0-2.8-0.5-4-1.5C9.4,37,9.3,37,9.2,36.9
			c-0.6-0.6-0.8-1.4-1.5-1.9c0-6.3-0.1-12.7,0-19c0-2.5,2.3-4.7,4.8-4.9c0.4,0,0.7,0,1,0c12.7,0,25.3,0,37.9,0c2,0,3.5,0.6,4.6,1.8
			c0.5,0.6,0.9,1.4,1.2,2.3c0.1,0.2,0.1,0.5,0.1,0.7c0,6.4,0,12.9,0,19.3c-0.3,0.1-0.4,0.4-0.6,0.6c-1.3,2-3.2,2.9-5.6,2.9
			c-4.7,0-9.5,0-14.2,0c-0.1-0.5-0.2-0.9-0.3-1.4c-0.9-2.8-3.4-3.8-7.1-2.8c-1.1,0.3-1.9,1.2-2.1,2.3c-0.1,0.6-0.3,1.3-0.5,1.9v0
			C22.4,38.6,17.9,38.7,13.4,38.6z M28.6,38.2c0.4-2,1.7-2.9,4.3-2.6c1.3,0.1,2.3,1.4,2.4,3.1c0.3,3.3,0.6,6.5,0.7,9.8
			c0,0.2,0,0.5,0,0.7c0.2,0.8,0.2,1.6,0.2,2.3c0,0.9-0.9,1.7-1.8,1.7c-2.1,0-4.2,0-6.4,0c-1,0-1.6-0.7-1.6-1.8
			c0-0.9,0.2-1.8,0.4-2.6c0-0.1,0-0.2,0-0.3C27.5,45,27.9,41.6,28.6,38.2z M23.6,51.3c0.3-0.1,0.5-0.2,0.8-0.3
			c0.4-0.1,0.7-0.1,0.6,0.4c-0.1,0.6,0.2,1.1,0.4,1.7c-0.7,0.1-1.3,0-1.8-0.3C23.3,52.7,23,52.5,23,52C23,51.6,23.3,51.4,23.6,51.3z
			 M79.6,58.5c-0.3,0-0.6,0-1,0H47.8c-14.5,0-29,0-43.5,0H4.2c-1.1,0-2-0.2-2.8-1.7c-0.1-0.1-0.1-0.4,0-0.5c0.9-1.5,2-1.6,3.1-1.6
			h73.8c0.4,0,0.9,0,1.3,0c1,0.1,1.8,0.8,1.9,1.6c0,0.1,0,0.2,0,0.3C81.6,57.6,80.7,58.4,79.6,58.5z"/>
		<linearGradient id="SVGID_7_" gradientUnits="userSpaceOnUse" x1="3.6951" y1="-30.9234" x2="97.3936" y2="24.4649">
			<stop  offset="0" style="stop-color:#005A96"/>
			<stop  offset="1" style="stop-color:#000000"/>
		</linearGradient>
		<path class="st10" d="M60.7,5.4c0.3,0.1,0.7,0.2,1,0.2c0.9,0,1.2,0.6,1.3,1.3c0,0.4,0.1,0.8,0.2,1.1c0.1,0.3,0.3,0.7,0.7,0.6
			c0.4-0.1,0.5-0.4,0.6-0.7c0.1-0.5,0.1-0.9,0.2-1.4c0.1-0.7,0.5-1,1.2-1.1c0.4,0,0.8,0,1.2-0.1c0.3-0.1,0.6-0.2,0.6-0.7
			C67.8,4,67.2,4,66.7,3.9c-1.5-0.2-1.7-0.4-1.9-1.6c-0.1-0.6,0-1.6-0.9-1.6c-0.8,0-0.7,1-0.8,1.6c-0.1,0.8-0.4,1.4-1.3,1.4
			c-0.3,0-0.7,0.1-1,0.2C60.3,4.1,60,4.3,60,4.7C60,5.2,60.4,5.3,60.7,5.4z"/>
		<linearGradient id="SVGID_8_" gradientUnits="userSpaceOnUse" x1="-39.143" y1="41.5444" x2="54.5555" y2="96.9327">
			<stop  offset="0" style="stop-color:#005A96"/>
			<stop  offset="1" style="stop-color:#000000"/>
		</linearGradient>
		<path class="st11" d="M12.4,72c0,0.1,0,0.2,0.1,0.2C12.6,72,12.5,72,12.4,72z"/>
		<linearGradient id="SVGID_9_" gradientUnits="userSpaceOnUse" x1="-0.8087" y1="-23.3044" x2="92.8897" y2="32.0839">
			<stop  offset="0" style="stop-color:#005A96"/>
			<stop  offset="1" style="stop-color:#000000"/>
		</linearGradient>
		<path class="st12" d="M65.9,15.5c0.2,0,0.4,0,0.6-0.1c0.2-0.1,0.3-0.2,0.4-0.4c0-0.2-0.1-0.4-0.3-0.4c-0.2-0.1-0.5-0.2-0.7-0.2
			c-1-0.1-1.2-0.3-1.3-1.3c-0.1-0.4,0-1-0.6-1c-0.7,0-0.6,0.7-0.6,1.1c-0.1,0.8-0.4,1.1-1.2,1.2c-0.5,0-1.1,0-1.1,0.6
			c0,0.6,0.7,0.6,1.1,0.6c0.8,0.1,1.2,0.4,1.2,1.2c0,0.4,0,1,0.6,1.1c0.7,0,0.5-0.7,0.6-1C64.7,15.7,64.7,15.6,65.9,15.5z"/>
		<linearGradient id="SVGID_10_" gradientUnits="userSpaceOnUse" x1="-10.2165" y1="-7.3896" x2="83.482" y2="47.9987">
			<stop  offset="0" style="stop-color:#005A96"/>
			<stop  offset="1" style="stop-color:#000000"/>
		</linearGradient>
		<path class="st13" d="M65.2,41.2c0.4,0.2,0.7,0,0.9-0.3c0.5-0.7,0.6-1.8,0-2.5c-0.6-0.7-0.6-1.3,0-2c0.3-0.3,0.4-0.8,0.4-1.2
			c0-0.5-0.2-1-0.5-1.4c-0.2-0.3-0.5-0.4-0.9-0.2c-0.3,0.2-0.3,0.5-0.1,0.8c0.4,0.6,0.3,1.1-0.1,1.6c-0.7,0.9-0.6,1.8,0,2.7
			c0.4,0.5,0.5,1,0.1,1.6C64.8,40.6,64.8,41,65.2,41.2z"/>
		<linearGradient id="SVGID_11_" gradientUnits="userSpaceOnUse" x1="-7.8909" y1="-11.3237" x2="85.8075" y2="44.0646">
			<stop  offset="0" style="stop-color:#005A96"/>
			<stop  offset="1" style="stop-color:#000000"/>
		</linearGradient>
		<path class="st14" d="M67.5,29.6c-0.3,0.2-0.4,0.5-0.1,0.9c0.7,0.9-0.2,1.6-0.9,2.6c-0.2,0.3-0.2,0.7,0.1,1
			c0.9,0.9,1.5,1.5,0.9,2.2c-0.2,0.3-0.2,0.7,0.1,0.9c0.4,0.2,0.7,0.1,0.9-0.3c0.5-0.8,0.6-1.8,0-2.6c-0.5-0.7-0.5-1.2,0-1.8
			c0.3-0.4,0.4-0.8,0.4-1.4c0-0.5-0.2-1-0.5-1.4C68.1,29.6,67.8,29.4,67.5,29.6z"/>
	</g>
</g>
</svg>
